<mxfile host="Electron" agent="Mozilla/5.0 (Windows NT 10.0; Win64; x64) AppleWebKit/537.36 (KHTML, like Gecko) draw.io/27.0.9 Chrome/134.0.6998.205 Electron/35.4.0 Safari/537.36" version="27.0.9">
  <diagram id="vB0ULoWuFr-RVPqRPjct" name="Page-1">
    <mxGraphModel dx="1405" dy="365" grid="1" gridSize="10" guides="1" tooltips="1" connect="1" arrows="1" fold="1" page="0" pageScale="1" pageWidth="850" pageHeight="1100" background="none" math="0" shadow="0">
      <root>
        <mxCell id="0" />
        <mxCell id="1" parent="0" />
        <mxCell id="8f1z-NfyuTeYd83FFEyt-1" value="Model" style="shape=folder;fontStyle=1;tabWidth=110;tabHeight=30;tabPosition=left;html=1;boundedLbl=1;labelInHeader=1;container=1;collapsible=0;whiteSpace=wrap;" vertex="1" parent="1">
          <mxGeometry x="1200" y="1548" width="1770" height="1422" as="geometry" />
        </mxCell>
        <mxCell id="8f1z-NfyuTeYd83FFEyt-2" value="" style="html=1;strokeColor=none;resizeWidth=1;resizeHeight=1;fillColor=none;part=1;connectable=0;allowArrows=0;deletable=0;whiteSpace=wrap;" vertex="1" parent="8f1z-NfyuTeYd83FFEyt-1">
          <mxGeometry width="1770" height="995.3999999999999" relative="1" as="geometry">
            <mxPoint y="30" as="offset" />
          </mxGeometry>
        </mxCell>
        <mxCell id="8f1z-NfyuTeYd83FFEyt-3" value="Entity" style="shape=folder;fontStyle=1;tabWidth=110;tabHeight=30;tabPosition=left;html=1;boundedLbl=1;labelInHeader=1;container=1;collapsible=0;whiteSpace=wrap;" vertex="1" parent="8f1z-NfyuTeYd83FFEyt-1">
          <mxGeometry x="60" y="62" width="869.55" height="1220" as="geometry" />
        </mxCell>
        <mxCell id="8f1z-NfyuTeYd83FFEyt-4" value="" style="html=1;strokeColor=none;resizeWidth=1;resizeHeight=1;fillColor=none;part=1;connectable=0;allowArrows=0;deletable=0;whiteSpace=wrap;" vertex="1" parent="8f1z-NfyuTeYd83FFEyt-3">
          <mxGeometry width="835.580651340996" height="854" relative="1" as="geometry">
            <mxPoint y="30" as="offset" />
          </mxGeometry>
        </mxCell>
        <mxCell id="node19" value="&lt;p style=&quot;margin:0px;margin-top:4px;text-align:center;&quot;&gt;&lt;b&gt;Users&lt;/b&gt;&lt;/p&gt;&lt;hr size=&quot;1&quot;/&gt;&lt;p style=&quot;margin:0 0 0 4px;line-height:1.6;&quot;&gt;+ Users(Integer, String, String, UsersType, Integer): &lt;/p&gt;&lt;hr size=&quot;1&quot;/&gt;&lt;p style=&quot;margin:0 0 0 4px;line-height:1.6;&quot;&gt;- name: String&lt;br/&gt;- role: UsersType&lt;br/&gt;- id: Integer&lt;br/&gt;- storeId: Integer&lt;br/&gt;- password: String&lt;/p&gt;&lt;hr size=&quot;1&quot;/&gt;&lt;p style=&quot;margin:0 0 0 4px;line-height:1.6;&quot;&gt; role: UsersType&lt;br/&gt; name: String&lt;br/&gt; password: String&lt;br/&gt; id: Integer&lt;br/&gt; storeId: Integer&lt;/p&gt;" style="verticalAlign=top;align=left;overflow=fill;fontSize=14;fontFamily=Helvetica;html=1;rounded=0;shadow=0;comic=0;labelBackgroundColor=none;strokeWidth=1;" parent="8f1z-NfyuTeYd83FFEyt-3" vertex="1">
          <mxGeometry x="25.54" y="92" width="334.46" height="330" as="geometry" />
        </mxCell>
        <mxCell id="node16" value="&lt;p style=&quot;margin:0px;margin-top:4px;text-align:center;&quot;&gt;&lt;b&gt;Stock&lt;/b&gt;&lt;/p&gt;&lt;hr size=&quot;1&quot;/&gt;&lt;p style=&quot;margin:0 0 0 4px;line-height:1.6;&quot;&gt;+ Stock(Integer, Integer, Integer, Integer): &lt;/p&gt;&lt;hr size=&quot;1&quot;/&gt;&lt;p style=&quot;margin:0 0 0 4px;line-height:1.6;&quot;&gt;- quantity: Integer&lt;br/&gt;- pefumeId: Integer&lt;br/&gt;- stockId: Integer&lt;br/&gt;- storeId: Integer&lt;/p&gt;&lt;hr size=&quot;1&quot;/&gt;&lt;p style=&quot;margin:0 0 0 4px;line-height:1.6;&quot;&gt; pefumeId: Integer&lt;br/&gt; quantity: Integer&lt;br/&gt; stockId: Integer&lt;br/&gt; storeId: Integer&lt;/p&gt;" style="verticalAlign=top;align=left;overflow=fill;fontSize=14;fontFamily=Helvetica;html=1;rounded=0;shadow=0;comic=0;labelBackgroundColor=none;strokeWidth=1;" parent="8f1z-NfyuTeYd83FFEyt-3" vertex="1">
          <mxGeometry x="38.61" y="482" width="281.39" height="276" as="geometry" />
        </mxCell>
        <mxCell id="node20" value="&lt;p style=&quot;margin:0px;margin-top:4px;text-align:center;&quot;&gt;&lt;b&gt;Perfume&lt;/b&gt;&lt;/p&gt;&lt;hr size=&quot;1&quot;/&gt;&lt;p style=&quot;margin:0 0 0 4px;line-height:1.6;&quot;&gt;+ Perfume(): &lt;br/&gt;+ Perfume(Perfume): &lt;br/&gt;+ Perfume(Integer, String, String, Double, String): &lt;/p&gt;&lt;hr size=&quot;1&quot;/&gt;&lt;p style=&quot;margin:0 0 0 4px;line-height:1.6;&quot;&gt;- name: String&lt;br/&gt;- brand: String&lt;br/&gt;- description: String&lt;br/&gt;- price: Double&lt;br/&gt;- id: Integer&lt;/p&gt;&lt;hr size=&quot;1&quot;/&gt;&lt;p style=&quot;margin:0 0 0 4px;line-height:1.6;&quot;&gt; name: String&lt;br/&gt; description: String&lt;br/&gt; price: Double&lt;br/&gt; brand: String&lt;br/&gt; id: Integer&lt;/p&gt;" style="verticalAlign=top;align=left;overflow=fill;fontSize=14;fontFamily=Helvetica;html=1;rounded=0;shadow=0;comic=0;labelBackgroundColor=none;strokeWidth=1;" parent="8f1z-NfyuTeYd83FFEyt-3" vertex="1">
          <mxGeometry x="45.14" y="802" width="324.86" height="384" as="geometry" />
        </mxCell>
        <mxCell id="node7" value="&lt;p style=&quot;margin:0px;margin-top:4px;text-align:center;&quot;&gt;&lt;b&gt;Stores&lt;/b&gt;&lt;/p&gt;&lt;hr size=&quot;1&quot;/&gt;&lt;p style=&quot;margin:0 0 0 4px;line-height:1.6;&quot;&gt;+ Stores(Integer, String, String): &lt;/p&gt;&lt;hr size=&quot;1&quot;/&gt;&lt;p style=&quot;margin:0 0 0 4px;line-height:1.6;&quot;&gt;- id: Integer&lt;br/&gt;- name: String&lt;br/&gt;- location: String&lt;/p&gt;&lt;hr size=&quot;1&quot;/&gt;&lt;p style=&quot;margin:0 0 0 4px;line-height:1.6;&quot;&gt; name: String&lt;br/&gt; id: Integer&lt;br/&gt; location: String&lt;/p&gt;" style="verticalAlign=top;align=left;overflow=fill;fontSize=14;fontFamily=Helvetica;html=1;rounded=0;shadow=0;comic=0;labelBackgroundColor=none;strokeWidth=1;" parent="8f1z-NfyuTeYd83FFEyt-3" vertex="1">
          <mxGeometry x="449.54999999999995" y="290" width="238" height="222" as="geometry" />
        </mxCell>
        <mxCell id="8f1z-NfyuTeYd83FFEyt-6" style="edgeStyle=orthogonalEdgeStyle;rounded=0;orthogonalLoop=1;jettySize=auto;html=1;" edge="1" parent="8f1z-NfyuTeYd83FFEyt-3" source="node4" target="node19">
          <mxGeometry relative="1" as="geometry" />
        </mxCell>
        <mxCell id="node4" value="&lt;p style=&quot;margin:0px;margin-top:4px;text-align:center;&quot;&gt;&lt;i&gt;&amp;lt;&amp;lt;enumeration&amp;gt;&amp;gt;&lt;/i&gt;&lt;br/&gt;&lt;b&gt;UsersType&lt;/b&gt;&lt;/p&gt;&lt;hr size=&quot;1&quot;/&gt;&lt;p style=&quot;margin:0 0 0 4px;line-height:1.6;&quot;&gt;+ UsersType(): &lt;/p&gt;&lt;hr size=&quot;1&quot;/&gt;&lt;p style=&quot;margin:0 0 0 4px;line-height:1.6;&quot;&gt;+ values(): UsersType[]&lt;br/&gt;+ valueOf(String): UsersType&lt;/p&gt;" style="verticalAlign=top;align=left;overflow=fill;fontSize=14;fontFamily=Helvetica;html=1;rounded=0;shadow=0;comic=0;labelBackgroundColor=none;strokeWidth=1;" parent="8f1z-NfyuTeYd83FFEyt-3" vertex="1">
          <mxGeometry x="449.54999999999995" y="92" width="214" height="141" as="geometry" />
        </mxCell>
        <mxCell id="8f1z-NfyuTeYd83FFEyt-7" value="Model" style="shape=folder;fontStyle=1;tabWidth=110;tabHeight=30;tabPosition=left;html=1;boundedLbl=1;labelInHeader=1;container=1;collapsible=0;whiteSpace=wrap;" vertex="1" parent="8f1z-NfyuTeYd83FFEyt-1">
          <mxGeometry x="1120" y="62" width="610" height="1228" as="geometry" />
        </mxCell>
        <mxCell id="8f1z-NfyuTeYd83FFEyt-8" value="" style="html=1;strokeColor=none;resizeWidth=1;resizeHeight=1;fillColor=none;part=1;connectable=0;allowArrows=0;deletable=0;whiteSpace=wrap;" vertex="1" parent="8f1z-NfyuTeYd83FFEyt-7">
          <mxGeometry width="610" height="859.5999999999999" relative="1" as="geometry">
            <mxPoint y="30" as="offset" />
          </mxGeometry>
        </mxCell>
        <mxCell id="node18" value="&lt;p style=&quot;margin:0px;margin-top:4px;text-align:center;&quot;&gt;&lt;b&gt;UserRepository&lt;/b&gt;&lt;/p&gt;&lt;hr size=&quot;1&quot;/&gt;&lt;p style=&quot;margin:0 0 0 4px;line-height:1.6;&quot;&gt;+ UserRepository(): &lt;/p&gt;&lt;hr size=&quot;1&quot;/&gt;&lt;p style=&quot;margin:0 0 0 4px;line-height:1.6;&quot;&gt;+ filterByRole(String): List&amp;lt;Users&amp;gt;&lt;br/&gt;+ addUser(Users): boolean&lt;br/&gt;+ getById(int): Users&lt;br/&gt;+ updateUser(Users): boolean&lt;br/&gt;+ deleteUser(int): boolean&lt;/p&gt;&lt;hr size=&quot;1&quot;/&gt;&lt;p style=&quot;margin:0 0 0 4px;line-height:1.6;&quot;&gt; all: List&amp;lt;Users&amp;gt;&lt;/p&gt;" style="verticalAlign=top;align=left;overflow=fill;fontSize=14;fontFamily=Helvetica;html=1;rounded=0;shadow=0;comic=0;labelBackgroundColor=none;strokeWidth=1;" parent="8f1z-NfyuTeYd83FFEyt-7" vertex="1">
          <mxGeometry x="170" y="70" width="249" height="222" as="geometry" />
        </mxCell>
        <mxCell id="node13" value="&lt;p style=&quot;margin:0px;margin-top:4px;text-align:center;&quot;&gt;&lt;b&gt;StoreRepository&lt;/b&gt;&lt;/p&gt;&lt;hr size=&quot;1&quot;/&gt;&lt;p style=&quot;margin:0 0 0 4px;line-height:1.6;&quot;&gt;+ StoreRepository(): &lt;/p&gt;&lt;hr size=&quot;1&quot;/&gt;&lt;p style=&quot;margin:0 0 0 4px;line-height:1.6;&quot;&gt;+ deleteStore(int): boolean&lt;br/&gt;+ getById(int): Stores&lt;br/&gt;+ addStore(Stores): boolean&lt;br/&gt;+ updateStore(Stores): boolean&lt;/p&gt;&lt;hr size=&quot;1&quot;/&gt;&lt;p style=&quot;margin:0 0 0 4px;line-height:1.6;&quot;&gt; all: List&amp;lt;Stores&amp;gt;&lt;/p&gt;" style="verticalAlign=top;align=left;overflow=fill;fontSize=14;fontFamily=Helvetica;html=1;rounded=0;shadow=0;comic=0;labelBackgroundColor=none;strokeWidth=1;" parent="8f1z-NfyuTeYd83FFEyt-7" vertex="1">
          <mxGeometry x="180" y="360" width="229" height="195" as="geometry" />
        </mxCell>
        <mxCell id="node11" value="&lt;p style=&quot;margin:0px;margin-top:4px;text-align:center;&quot;&gt;&lt;b&gt;PerfumeRepository&lt;/b&gt;&lt;/p&gt;&lt;hr size=&quot;1&quot;/&gt;&lt;p style=&quot;margin:0 0 0 4px;line-height:1.6;&quot;&gt;+ PerfumeRepository(): &lt;/p&gt;&lt;hr size=&quot;1&quot;/&gt;&lt;p style=&quot;margin:0 0 0 4px;line-height:1.6;&quot;&gt;+ addPerfume(Perfume): boolean&lt;br/&gt;+ updatePerfume(Perfume): boolean&lt;br/&gt;+ filterPerfumes(String, Integer, Double): List&amp;lt;Perfume&amp;gt;&lt;br/&gt;+ searchByName(String): List&amp;lt;Perfume&amp;gt;&lt;br/&gt;+ getById(Integer): Perfume&lt;br/&gt;+ deletePerfume(Integer): boolean&lt;/p&gt;&lt;hr size=&quot;1&quot;/&gt;&lt;p style=&quot;margin:0 0 0 4px;line-height:1.6;&quot;&gt; all: List&amp;lt;Perfume&amp;gt;&lt;/p&gt;" style="verticalAlign=top;align=left;overflow=fill;fontSize=14;fontFamily=Helvetica;html=1;rounded=0;shadow=0;comic=0;labelBackgroundColor=none;strokeWidth=1;" parent="8f1z-NfyuTeYd83FFEyt-7" vertex="1">
          <mxGeometry x="140" y="869.5" width="382" height="249" as="geometry" />
        </mxCell>
        <mxCell id="node14" value="&lt;p style=&quot;margin:0px;margin-top:4px;text-align:center;&quot;&gt;&lt;b&gt;StockRepository&lt;/b&gt;&lt;/p&gt;&lt;hr size=&quot;1&quot;/&gt;&lt;p style=&quot;margin:0 0 0 4px;line-height:1.6;&quot;&gt;+ StockRepository(): &lt;/p&gt;&lt;hr size=&quot;1&quot;/&gt;&lt;p style=&quot;margin:0 0 0 4px;line-height:1.6;&quot;&gt;+ getStockByStoreAndPerfume(int, int): Stock&lt;br/&gt;+ add(Stock): boolean&lt;br/&gt;+ getAllByStore(int): List&amp;lt;Stock&amp;gt;&lt;/p&gt;" style="verticalAlign=top;align=left;overflow=fill;fontSize=14;fontFamily=Helvetica;html=1;rounded=0;shadow=0;comic=0;labelBackgroundColor=none;strokeWidth=1;" parent="8f1z-NfyuTeYd83FFEyt-7" vertex="1">
          <mxGeometry x="134.5" y="580" width="320" height="140" as="geometry" />
        </mxCell>
        <mxCell id="8f1z-NfyuTeYd83FFEyt-9" style="edgeStyle=orthogonalEdgeStyle;rounded=0;orthogonalLoop=1;jettySize=auto;html=1;entryX=1;entryY=0.5;entryDx=0;entryDy=0;" edge="1" parent="8f1z-NfyuTeYd83FFEyt-1" source="node18" target="node19">
          <mxGeometry relative="1" as="geometry">
            <Array as="points">
              <mxPoint x="855" y="243" />
              <mxPoint x="855" y="342" />
              <mxPoint x="420" y="342" />
            </Array>
          </mxGeometry>
        </mxCell>
        <mxCell id="8f1z-NfyuTeYd83FFEyt-10" style="edgeStyle=orthogonalEdgeStyle;rounded=0;orthogonalLoop=1;jettySize=auto;html=1;" edge="1" parent="8f1z-NfyuTeYd83FFEyt-1" source="node13" target="node7">
          <mxGeometry relative="1" as="geometry" />
        </mxCell>
        <mxCell id="8f1z-NfyuTeYd83FFEyt-11" style="edgeStyle=orthogonalEdgeStyle;rounded=0;orthogonalLoop=1;jettySize=auto;html=1;entryX=1;entryY=0.5;entryDx=0;entryDy=0;" edge="1" parent="8f1z-NfyuTeYd83FFEyt-1" source="node11" target="node20">
          <mxGeometry relative="1" as="geometry" />
        </mxCell>
        <mxCell id="8f1z-NfyuTeYd83FFEyt-12" style="edgeStyle=orthogonalEdgeStyle;rounded=0;orthogonalLoop=1;jettySize=auto;html=1;entryX=1;entryY=0.5;entryDx=0;entryDy=0;" edge="1" parent="8f1z-NfyuTeYd83FFEyt-1" source="node14" target="node16">
          <mxGeometry relative="1" as="geometry">
            <Array as="points">
              <mxPoint x="1415" y="672" />
              <mxPoint x="880" y="672" />
              <mxPoint x="880" y="682" />
            </Array>
          </mxGeometry>
        </mxCell>
        <mxCell id="8f1z-NfyuTeYd83FFEyt-13" value="Model" style="shape=folder;fontStyle=1;tabWidth=110;tabHeight=30;tabPosition=left;html=1;boundedLbl=1;labelInHeader=1;container=1;collapsible=0;whiteSpace=wrap;" vertex="1" parent="1">
          <mxGeometry x="1200" y="3030" width="1770" height="1422" as="geometry" />
        </mxCell>
        <mxCell id="8f1z-NfyuTeYd83FFEyt-14" value="" style="html=1;strokeColor=none;resizeWidth=1;resizeHeight=1;fillColor=none;part=1;connectable=0;allowArrows=0;deletable=0;whiteSpace=wrap;" vertex="1" parent="8f1z-NfyuTeYd83FFEyt-13">
          <mxGeometry width="1770" height="995.3999999999999" relative="1" as="geometry">
            <mxPoint y="30" as="offset" />
          </mxGeometry>
        </mxCell>
        <mxCell id="node15" value="&lt;p style=&quot;margin:0px;margin-top:4px;text-align:center;&quot;&gt;&lt;b&gt;AdminPresenter&lt;/b&gt;&lt;/p&gt;&lt;hr size=&quot;1&quot;/&gt;&lt;p style=&quot;margin:0 0 0 4px;line-height:1.6;&quot;&gt;+ AdminPresenter(UserRepository): &lt;/p&gt;&lt;hr size=&quot;1&quot;/&gt;&lt;p style=&quot;margin:0 0 0 4px;line-height:1.6;&quot;&gt;+ init(): void&lt;br/&gt;- lookup(String): Object&lt;br/&gt;+ handleUpdate(): void&lt;br/&gt;+ handleDelete(): void&lt;br/&gt;+ loadAllUsers(): void&lt;br/&gt;- populateFilter(): void&lt;br/&gt;- showError(String): void&lt;br/&gt;+ handleResetFilter(): void&lt;br/&gt;+ handleAdd(): void&lt;br/&gt;+ handleApplyFilter(): void&lt;br/&gt;- configureTable(): void&lt;br/&gt;- showInfo(String): void&lt;/p&gt;" style="verticalAlign=top;align=left;overflow=fill;fontSize=14;fontFamily=Helvetica;html=1;rounded=0;shadow=0;comic=0;labelBackgroundColor=none;strokeWidth=1;" parent="8f1z-NfyuTeYd83FFEyt-13" vertex="1">
          <mxGeometry x="329.9999999999999" y="153.5" width="257" height="383" as="geometry" />
        </mxCell>
        <mxCell id="node17" value="&lt;p style=&quot;margin:0px;margin-top:4px;text-align:center;&quot;&gt;&lt;b&gt;EmployeePresenter&lt;/b&gt;&lt;/p&gt;&lt;hr size=&quot;1&quot;/&gt;&lt;p style=&quot;margin:0 0 0 4px;line-height:1.6;&quot;&gt;+ EmployeePresenter(PerfumeRepository, StockRepository, int): &lt;/p&gt;&lt;hr size=&quot;1&quot;/&gt;&lt;p style=&quot;margin:0 0 0 4px;line-height:1.6;&quot;&gt;+ handleApplyFilters(): void&lt;br/&gt;- loadPerfumes(): void&lt;br/&gt;- lookup(String): Object&lt;br/&gt;+ handleUpdate(): void&lt;br/&gt;+ handleDelete(): void&lt;br/&gt;+ init(): void&lt;br/&gt;+ handleAdd(): void&lt;br/&gt;- showInfo(String, String): void&lt;br/&gt;- showError(String): void&lt;br/&gt;- populateFilters(): void&lt;br/&gt;+ handleSearch(): void&lt;br/&gt;- configureTable(): void&lt;br/&gt;+ handleReset(): void&lt;/p&gt;" style="verticalAlign=top;align=left;overflow=fill;fontSize=14;fontFamily=Helvetica;html=1;rounded=0;shadow=0;comic=0;labelBackgroundColor=none;strokeWidth=1;" parent="8f1z-NfyuTeYd83FFEyt-13" vertex="1">
          <mxGeometry x="680" y="153.5" width="435" height="410" as="geometry" />
        </mxCell>
        <mxCell id="node1" value="&lt;p style=&quot;margin:0px;margin-top:4px;text-align:center;&quot;&gt;&lt;b&gt;ManagerPresenter&lt;/b&gt;&lt;/p&gt;&lt;hr size=&quot;1&quot;/&gt;&lt;p style=&quot;margin:0 0 0 4px;line-height:1.6;&quot;&gt;+ ManagerPresenter(PerfumeRepository, StockRepository): &lt;/p&gt;&lt;hr size=&quot;1&quot;/&gt;&lt;p style=&quot;margin:0 0 0 4px;line-height:1.6;&quot;&gt;+ handleUpdate(): void&lt;br/&gt;- showInfo(String, String): void&lt;br/&gt;+ handleExport(): void&lt;br/&gt;- loadPerfumes(): void&lt;br/&gt;+ handleApplyFilters(): void&lt;br/&gt;- exportJSON(PrintWriter, List&amp;lt;Perfume&amp;gt;): void&lt;br/&gt;- lookup(String): Object&lt;br/&gt;+ init(): void&lt;br/&gt;- showError(String): void&lt;br/&gt;+ handleAdd(): void&lt;br/&gt;- exportCSV(PrintWriter, List&amp;lt;Perfume&amp;gt;): void&lt;br/&gt;+ handleReset(): void&lt;br/&gt;- exportTXT(PrintWriter, List&amp;lt;Perfume&amp;gt;): void&lt;br/&gt;+ handleDelete(): void&lt;br/&gt;- populateFilters(): void&lt;br/&gt;- configureTable(): void&lt;br/&gt;+ handleSearch(): void&lt;/p&gt;" style="verticalAlign=top;align=left;overflow=fill;fontSize=14;fontFamily=Helvetica;html=1;rounded=0;shadow=0;comic=0;labelBackgroundColor=none;strokeWidth=1;" parent="8f1z-NfyuTeYd83FFEyt-13" vertex="1">
          <mxGeometry x="1250" y="100" width="404" height="518" as="geometry" />
        </mxCell>
        <mxCell id="8f1z-NfyuTeYd83FFEyt-53" style="edgeStyle=orthogonalEdgeStyle;rounded=0;orthogonalLoop=1;jettySize=auto;html=1;" edge="1" parent="8f1z-NfyuTeYd83FFEyt-13" source="node3" target="node15">
          <mxGeometry relative="1" as="geometry">
            <Array as="points">
              <mxPoint x="885" y="780" />
              <mxPoint x="318" y="780" />
            </Array>
          </mxGeometry>
        </mxCell>
        <mxCell id="node3" value="&lt;p style=&quot;margin:0px;margin-top:4px;text-align:center;&quot;&gt;&lt;i&gt;&amp;lt;&amp;lt;interface&amp;gt;&amp;gt;&lt;/i&gt;&lt;br/&gt;&lt;b&gt;IAdminView&lt;/b&gt;&lt;/p&gt;&lt;hr size=&quot;1&quot;/&gt;&lt;p style=&quot;margin:0 0 0 4px;line-height:1.6;&quot;&gt;+ showUsers(List&amp;lt;Users&amp;gt;): void&lt;br/&gt;+ showError(String): void&lt;/p&gt;" style="verticalAlign=top;align=left;overflow=fill;fontSize=14;fontFamily=Helvetica;html=1;rounded=0;shadow=0;comic=0;labelBackgroundColor=none;strokeWidth=1;" parent="8f1z-NfyuTeYd83FFEyt-13" vertex="1">
          <mxGeometry x="766" y="844" width="238" height="106" as="geometry" />
        </mxCell>
        <mxCell id="8f1z-NfyuTeYd83FFEyt-54" style="edgeStyle=orthogonalEdgeStyle;rounded=0;orthogonalLoop=1;jettySize=auto;html=1;" edge="1" parent="8f1z-NfyuTeYd83FFEyt-13" source="node10" target="node1">
          <mxGeometry relative="1" as="geometry">
            <Array as="points">
              <mxPoint x="1217" y="721" />
              <mxPoint x="1390" y="721" />
            </Array>
          </mxGeometry>
        </mxCell>
        <mxCell id="node10" value="&lt;p style=&quot;margin:0px;margin-top:4px;text-align:center;&quot;&gt;&lt;i&gt;&amp;lt;&amp;lt;interface&amp;gt;&amp;gt;&lt;/i&gt;&lt;br/&gt;&lt;b&gt;IManagerView&lt;/b&gt;&lt;/p&gt;&lt;hr size=&quot;1&quot;/&gt;&lt;p style=&quot;margin:0 0 0 4px;line-height:1.6;&quot;&gt;+ showChartData(int[]): void&lt;br/&gt;+ showError(String): void&lt;br/&gt;+ showPerfumes(List&amp;lt;Perfume&amp;gt;): void&lt;br/&gt;+ showExportSuccess(String): void&lt;/p&gt;" style="verticalAlign=top;align=left;overflow=fill;fontSize=14;fontFamily=Helvetica;html=1;rounded=0;shadow=0;comic=0;labelBackgroundColor=none;strokeWidth=1;" parent="8f1z-NfyuTeYd83FFEyt-13" vertex="1">
          <mxGeometry x="1080" y="823" width="274" height="174" as="geometry" />
        </mxCell>
        <mxCell id="8f1z-NfyuTeYd83FFEyt-57" style="edgeStyle=orthogonalEdgeStyle;rounded=0;orthogonalLoop=1;jettySize=auto;html=1;" edge="1" parent="8f1z-NfyuTeYd83FFEyt-13" source="node6" target="node8">
          <mxGeometry relative="1" as="geometry" />
        </mxCell>
        <mxCell id="node6" value="&lt;p style=&quot;margin:0px;margin-top:4px;text-align:center;&quot;&gt;&lt;i&gt;&amp;lt;&amp;lt;interface&amp;gt;&amp;gt;&lt;/i&gt;&lt;br/&gt;&lt;b&gt;ILoginView&lt;/b&gt;&lt;/p&gt;&lt;hr size=&quot;1&quot;/&gt;&lt;p style=&quot;margin:0 0 0 4px;line-height:1.6;&quot;&gt;+ onLoginSuccess(Users): void&lt;br/&gt;+ showError(String): void&lt;/p&gt;" style="verticalAlign=top;align=left;overflow=fill;fontSize=14;fontFamily=Helvetica;html=1;rounded=0;shadow=0;comic=0;labelBackgroundColor=none;strokeWidth=1;" parent="8f1z-NfyuTeYd83FFEyt-13" vertex="1">
          <mxGeometry x="70" y="857" width="228" height="106" as="geometry" />
        </mxCell>
        <mxCell id="8f1z-NfyuTeYd83FFEyt-52" style="edgeStyle=orthogonalEdgeStyle;rounded=0;orthogonalLoop=1;jettySize=auto;html=1;" edge="1" parent="8f1z-NfyuTeYd83FFEyt-13" source="node9" target="node17">
          <mxGeometry relative="1" as="geometry" />
        </mxCell>
        <mxCell id="node9" value="&lt;p style=&quot;margin:0px;margin-top:4px;text-align:center;&quot;&gt;&lt;i&gt;&amp;lt;&amp;lt;interface&amp;gt;&amp;gt;&lt;/i&gt;&lt;br/&gt;&lt;b&gt;IEmployeeView&lt;/b&gt;&lt;/p&gt;&lt;hr size=&quot;1&quot;/&gt;&lt;p style=&quot;margin:0 0 0 4px;line-height:1.6;&quot;&gt;+ showSuccess(String): void&lt;br/&gt;+ showPerfumes(List&amp;lt;Perfume&amp;gt;): void&lt;br/&gt;+ showError(String): void&lt;/p&gt;" style="verticalAlign=top;align=left;overflow=fill;fontSize=14;fontFamily=Helvetica;html=1;rounded=0;shadow=0;comic=0;labelBackgroundColor=none;strokeWidth=1;" parent="8f1z-NfyuTeYd83FFEyt-13" vertex="1">
          <mxGeometry x="390" y="840" width="274" height="140" as="geometry" />
        </mxCell>
        <mxCell id="node8" value="&lt;p style=&quot;margin:0px;margin-top:4px;text-align:center;&quot;&gt;&lt;b&gt;LoginPresenter&lt;/b&gt;&lt;/p&gt;&lt;hr size=&quot;1&quot;/&gt;&lt;p style=&quot;margin:0 0 0 4px;line-height:1.6;&quot;&gt;+ LoginPresenter(UserRepository): &lt;/p&gt;&lt;hr size=&quot;1&quot;/&gt;&lt;p style=&quot;margin:0 0 0 4px;line-height:1.6;&quot;&gt;- showError(String): void&lt;br/&gt;- lookup(String): Object&lt;br/&gt;+ init(): void&lt;br/&gt;+ handleLogin(): void&lt;/p&gt;" style="verticalAlign=top;align=left;overflow=fill;fontSize=14;fontFamily=Helvetica;html=1;rounded=0;shadow=0;comic=0;labelBackgroundColor=none;strokeWidth=1;" parent="8f1z-NfyuTeYd83FFEyt-13" vertex="1">
          <mxGeometry x="40" y="210" width="252" height="167" as="geometry" />
        </mxCell>
        <mxCell id="8f1z-NfyuTeYd83FFEyt-33" style="edgeStyle=orthogonalEdgeStyle;rounded=0;orthogonalLoop=1;jettySize=auto;html=1;" edge="1" parent="1" source="node17" target="node20">
          <mxGeometry relative="1" as="geometry">
            <Array as="points">
              <mxPoint x="2048" y="3010" />
              <mxPoint x="1468" y="3010" />
            </Array>
          </mxGeometry>
        </mxCell>
        <mxCell id="8f1z-NfyuTeYd83FFEyt-34" style="edgeStyle=orthogonalEdgeStyle;rounded=0;orthogonalLoop=1;jettySize=auto;html=1;" edge="1" parent="1" source="node17" target="node16">
          <mxGeometry relative="1" as="geometry">
            <Array as="points">
              <mxPoint x="2110" y="2990" />
              <mxPoint x="1730" y="2990" />
              <mxPoint x="1730" y="2270" />
            </Array>
          </mxGeometry>
        </mxCell>
        <mxCell id="8f1z-NfyuTeYd83FFEyt-35" style="edgeStyle=orthogonalEdgeStyle;rounded=0;orthogonalLoop=1;jettySize=auto;html=1;entryX=0.386;entryY=1.012;entryDx=0;entryDy=0;entryPerimeter=0;" edge="1" parent="1" source="node17" target="node7">
          <mxGeometry relative="1" as="geometry">
            <Array as="points">
              <mxPoint x="1970" y="2646" />
              <mxPoint x="1801" y="2646" />
            </Array>
          </mxGeometry>
        </mxCell>
        <mxCell id="8f1z-NfyuTeYd83FFEyt-36" style="edgeStyle=orthogonalEdgeStyle;rounded=0;orthogonalLoop=1;jettySize=auto;html=1;entryX=0;entryY=0.5;entryDx=0;entryDy=0;" edge="1" parent="1" source="node17" target="node11">
          <mxGeometry relative="1" as="geometry">
            <Array as="points">
              <mxPoint x="2362" y="3375" />
              <mxPoint x="2362" y="2560" />
              <mxPoint x="2460" y="2560" />
            </Array>
          </mxGeometry>
        </mxCell>
        <mxCell id="8f1z-NfyuTeYd83FFEyt-37" style="edgeStyle=orthogonalEdgeStyle;rounded=0;orthogonalLoop=1;jettySize=auto;html=1;entryX=0;entryY=0.5;entryDx=0;entryDy=0;" edge="1" parent="1" source="node17" target="node14">
          <mxGeometry relative="1" as="geometry">
            <Array as="points">
              <mxPoint x="2160" y="3130" />
              <mxPoint x="2250" y="3130" />
              <mxPoint x="2250" y="2260" />
            </Array>
          </mxGeometry>
        </mxCell>
        <mxCell id="8f1z-NfyuTeYd83FFEyt-38" style="edgeStyle=orthogonalEdgeStyle;rounded=0;orthogonalLoop=1;jettySize=auto;html=1;" edge="1" parent="1" source="node1" target="node11">
          <mxGeometry relative="1" as="geometry" />
        </mxCell>
        <mxCell id="8f1z-NfyuTeYd83FFEyt-39" style="edgeStyle=orthogonalEdgeStyle;rounded=0;orthogonalLoop=1;jettySize=auto;html=1;" edge="1" parent="1" source="node1" target="node14">
          <mxGeometry relative="1" as="geometry">
            <Array as="points">
              <mxPoint x="2590" y="2770" />
              <mxPoint x="2380" y="2770" />
              <mxPoint x="2380" y="2260" />
            </Array>
          </mxGeometry>
        </mxCell>
        <mxCell id="8f1z-NfyuTeYd83FFEyt-40" style="edgeStyle=orthogonalEdgeStyle;rounded=0;orthogonalLoop=1;jettySize=auto;html=1;" edge="1" parent="1" source="node1" target="node13">
          <mxGeometry relative="1" as="geometry">
            <Array as="points">
              <mxPoint x="2652" y="2930" />
              <mxPoint x="2340" y="2930" />
              <mxPoint x="2340" y="2067" />
            </Array>
          </mxGeometry>
        </mxCell>
        <mxCell id="8f1z-NfyuTeYd83FFEyt-41" style="edgeStyle=orthogonalEdgeStyle;rounded=0;orthogonalLoop=1;jettySize=auto;html=1;" edge="1" parent="1" source="node17" target="node13">
          <mxGeometry relative="1" as="geometry">
            <Array as="points">
              <mxPoint x="2160" y="2067" />
            </Array>
          </mxGeometry>
        </mxCell>
        <mxCell id="8f1z-NfyuTeYd83FFEyt-42" style="edgeStyle=orthogonalEdgeStyle;rounded=0;orthogonalLoop=1;jettySize=auto;html=1;" edge="1" parent="1" source="node17" target="node11">
          <mxGeometry relative="1" as="geometry">
            <Array as="points">
              <mxPoint x="2390" y="3375" />
              <mxPoint x="2390" y="2604" />
            </Array>
          </mxGeometry>
        </mxCell>
        <mxCell id="8f1z-NfyuTeYd83FFEyt-43" style="edgeStyle=orthogonalEdgeStyle;rounded=0;orthogonalLoop=1;jettySize=auto;html=1;entryX=1;entryY=0.5;entryDx=0;entryDy=0;" edge="1" parent="1" source="node1" target="node20">
          <mxGeometry relative="1" as="geometry">
            <Array as="points">
              <mxPoint x="2340" y="3389" />
              <mxPoint x="2340" y="2604" />
            </Array>
          </mxGeometry>
        </mxCell>
        <mxCell id="8f1z-NfyuTeYd83FFEyt-44" style="edgeStyle=orthogonalEdgeStyle;rounded=0;orthogonalLoop=1;jettySize=auto;html=1;entryX=1;entryY=0.5;entryDx=0;entryDy=0;" edge="1" parent="1" source="node1" target="node16">
          <mxGeometry relative="1" as="geometry">
            <Array as="points">
              <mxPoint x="2300" y="3389" />
              <mxPoint x="2300" y="2230" />
            </Array>
          </mxGeometry>
        </mxCell>
        <mxCell id="8f1z-NfyuTeYd83FFEyt-45" style="edgeStyle=orthogonalEdgeStyle;rounded=0;orthogonalLoop=1;jettySize=auto;html=1;" edge="1" parent="1" source="node1" target="node7">
          <mxGeometry relative="1" as="geometry">
            <Array as="points">
              <mxPoint x="2652" y="2880" />
              <mxPoint x="1829" y="2880" />
            </Array>
          </mxGeometry>
        </mxCell>
        <mxCell id="8f1z-NfyuTeYd83FFEyt-46" style="edgeStyle=orthogonalEdgeStyle;rounded=0;orthogonalLoop=1;jettySize=auto;html=1;" edge="1" parent="1" source="node15" target="node18">
          <mxGeometry relative="1" as="geometry">
            <Array as="points">
              <mxPoint x="1760" y="3375" />
              <mxPoint x="1760" y="2170" />
              <mxPoint x="2340" y="2170" />
              <mxPoint x="2340" y="1791" />
            </Array>
          </mxGeometry>
        </mxCell>
        <mxCell id="8f1z-NfyuTeYd83FFEyt-47" style="edgeStyle=orthogonalEdgeStyle;rounded=0;orthogonalLoop=1;jettySize=auto;html=1;" edge="1" parent="1" source="node15" target="node19">
          <mxGeometry relative="1" as="geometry">
            <Array as="points">
              <mxPoint x="1680" y="3375" />
              <mxPoint x="1680" y="1867" />
            </Array>
          </mxGeometry>
        </mxCell>
        <mxCell id="8f1z-NfyuTeYd83FFEyt-59" value="View" style="shape=folder;fontStyle=1;tabWidth=110;tabHeight=30;tabPosition=left;html=1;boundedLbl=1;labelInHeader=1;container=1;collapsible=0;whiteSpace=wrap;" vertex="1" parent="1">
          <mxGeometry x="1210" y="4530" width="1770" height="1422" as="geometry" />
        </mxCell>
        <mxCell id="8f1z-NfyuTeYd83FFEyt-60" value="" style="html=1;strokeColor=none;resizeWidth=1;resizeHeight=1;fillColor=none;part=1;connectable=0;allowArrows=0;deletable=0;whiteSpace=wrap;" vertex="1" parent="8f1z-NfyuTeYd83FFEyt-59">
          <mxGeometry width="1770" height="995.3999999999999" relative="1" as="geometry">
            <mxPoint y="30" as="offset" />
          </mxGeometry>
        </mxCell>
        <mxCell id="node2" value="&lt;p style=&quot;margin:0px;margin-top:4px;text-align:center;&quot;&gt;&lt;b&gt;EmployeeViewController&lt;/b&gt;&lt;/p&gt;&lt;hr size=&quot;1&quot;/&gt;&lt;p style=&quot;margin:0 0 0 4px;line-height:1.6;&quot;&gt;+ EmployeeViewController(): &lt;/p&gt;&lt;hr size=&quot;1&quot;/&gt;&lt;p style=&quot;margin:0 0 0 4px;line-height:1.6;&quot;&gt;- handleSearch(): void&lt;br/&gt;- handleApply(): void&lt;br/&gt;+ initialize(): void&lt;br/&gt;- handleUpdate(): void&lt;br/&gt;- handleReset(): void&lt;br/&gt;- handleAdd(): void&lt;br/&gt;- handleDelete(): void&lt;/p&gt;" style="verticalAlign=top;align=left;overflow=fill;fontSize=14;fontFamily=Helvetica;html=1;rounded=0;shadow=0;comic=0;labelBackgroundColor=none;strokeWidth=1;" parent="8f1z-NfyuTeYd83FFEyt-59" vertex="1">
          <mxGeometry x="1309.5" y="130" width="243" height="248" as="geometry" />
        </mxCell>
        <mxCell id="node12" value="&lt;p style=&quot;margin:0px;margin-top:4px;text-align:center;&quot;&gt;&lt;b&gt;AdminViewController&lt;/b&gt;&lt;/p&gt;&lt;hr size=&quot;1&quot;/&gt;&lt;p style=&quot;margin:0 0 0 4px;line-height:1.6;&quot;&gt;+ AdminViewController(): &lt;/p&gt;&lt;hr size=&quot;1&quot;/&gt;&lt;p style=&quot;margin:0 0 0 4px;line-height:1.6;&quot;&gt;- handleApply(): void&lt;br/&gt;+ initialize(): void&lt;br/&gt;- handleUpdate(): void&lt;br/&gt;- handleAdd(): void&lt;br/&gt;- handleReset(): void&lt;br/&gt;- handleDelete(): void&lt;/p&gt;" style="verticalAlign=top;align=left;overflow=fill;fontSize=14;fontFamily=Helvetica;html=1;rounded=0;shadow=0;comic=0;labelBackgroundColor=none;strokeWidth=1;" parent="8f1z-NfyuTeYd83FFEyt-59" vertex="1">
          <mxGeometry x="970" y="180" width="217" height="221" as="geometry" />
        </mxCell>
        <mxCell id="node21" value="&lt;p style=&quot;margin:0px;margin-top:4px;text-align:center;&quot;&gt;&lt;b&gt;LoginViewController&lt;/b&gt;&lt;/p&gt;&lt;hr size=&quot;1&quot;/&gt;&lt;p style=&quot;margin:0 0 0 4px;line-height:1.6;&quot;&gt;+ LoginViewController(): &lt;/p&gt;&lt;hr size=&quot;1&quot;/&gt;&lt;p style=&quot;margin:0 0 0 4px;line-height:1.6;&quot;&gt;- handleLogin(): void&lt;br/&gt;+ initialize(): void&lt;/p&gt;" style="verticalAlign=top;align=left;overflow=fill;fontSize=14;fontFamily=Helvetica;html=1;rounded=0;shadow=0;comic=0;labelBackgroundColor=none;strokeWidth=1;" parent="8f1z-NfyuTeYd83FFEyt-59" vertex="1">
          <mxGeometry x="590" y="179.5" width="209" height="122" as="geometry" />
        </mxCell>
        <mxCell id="node5" value="&lt;p style=&quot;margin:0px;margin-top:4px;text-align:center;&quot;&gt;&lt;b&gt;ManagerViewController&lt;/b&gt;&lt;/p&gt;&lt;hr size=&quot;1&quot;/&gt;&lt;p style=&quot;margin:0 0 0 4px;line-height:1.6;&quot;&gt;+ ManagerViewController(): &lt;/p&gt;&lt;hr size=&quot;1&quot;/&gt;&lt;p style=&quot;margin:0 0 0 4px;line-height:1.6;&quot;&gt;+ initialize(): void&lt;br/&gt;- handleSearch(): void&lt;br/&gt;- handleAdd(): void&lt;br/&gt;- handleDelete(): void&lt;br/&gt;- handleReset(): void&lt;br/&gt;- handleUpdate(): void&lt;br/&gt;- handleApply(): void&lt;br/&gt;- handleExport(): void&lt;/p&gt;" style="verticalAlign=top;align=left;overflow=fill;fontSize=14;fontFamily=Helvetica;html=1;rounded=0;shadow=0;comic=0;labelBackgroundColor=none;strokeWidth=1;" parent="8f1z-NfyuTeYd83FFEyt-59" vertex="1">
          <mxGeometry x="120" y="103" width="235" height="275" as="geometry" />
        </mxCell>
        <mxCell id="8f1z-NfyuTeYd83FFEyt-74" style="edgeStyle=orthogonalEdgeStyle;rounded=0;orthogonalLoop=1;jettySize=auto;html=1;entryX=0.41;entryY=0.025;entryDx=0;entryDy=0;entryPerimeter=0;" edge="1" parent="1" source="node10" target="node5">
          <mxGeometry relative="1" as="geometry">
            <Array as="points">
              <mxPoint x="2417" y="4170" />
              <mxPoint x="1426" y="4170" />
            </Array>
          </mxGeometry>
        </mxCell>
        <mxCell id="8f1z-NfyuTeYd83FFEyt-75" style="edgeStyle=orthogonalEdgeStyle;rounded=0;orthogonalLoop=1;jettySize=auto;html=1;" edge="1" parent="1" source="node1" target="node5">
          <mxGeometry relative="1" as="geometry">
            <Array as="points">
              <mxPoint x="2652" y="4220" />
              <mxPoint x="1448" y="4220" />
            </Array>
          </mxGeometry>
        </mxCell>
        <mxCell id="8f1z-NfyuTeYd83FFEyt-76" style="edgeStyle=orthogonalEdgeStyle;rounded=0;orthogonalLoop=1;jettySize=auto;html=1;entryX=0.44;entryY=0.02;entryDx=0;entryDy=0;entryPerimeter=0;" edge="1" parent="1" source="node6" target="node21">
          <mxGeometry relative="1" as="geometry">
            <Array as="points">
              <mxPoint x="1384" y="4370" />
              <mxPoint x="1892" y="4370" />
            </Array>
          </mxGeometry>
        </mxCell>
        <mxCell id="8f1z-NfyuTeYd83FFEyt-77" style="edgeStyle=orthogonalEdgeStyle;rounded=0;orthogonalLoop=1;jettySize=auto;html=1;" edge="1" parent="1" source="node8" target="node21">
          <mxGeometry relative="1" as="geometry">
            <Array as="points">
              <mxPoint x="1366" y="3660" />
              <mxPoint x="1905" y="3660" />
            </Array>
          </mxGeometry>
        </mxCell>
        <mxCell id="8f1z-NfyuTeYd83FFEyt-78" style="edgeStyle=orthogonalEdgeStyle;rounded=0;orthogonalLoop=1;jettySize=auto;html=1;" edge="1" parent="1" source="node15" target="node12">
          <mxGeometry relative="1" as="geometry">
            <Array as="points">
              <mxPoint x="1659" y="3730" />
              <mxPoint x="2250" y="3730" />
            </Array>
          </mxGeometry>
        </mxCell>
        <mxCell id="8f1z-NfyuTeYd83FFEyt-79" style="edgeStyle=orthogonalEdgeStyle;rounded=0;orthogonalLoop=1;jettySize=auto;html=1;" edge="1" parent="1" source="node3" target="node12">
          <mxGeometry relative="1" as="geometry" />
        </mxCell>
        <mxCell id="8f1z-NfyuTeYd83FFEyt-81" style="edgeStyle=orthogonalEdgeStyle;rounded=0;orthogonalLoop=1;jettySize=auto;html=1;" edge="1" parent="1" source="node9" target="node2">
          <mxGeometry relative="1" as="geometry">
            <Array as="points">
              <mxPoint x="1727" y="4300" />
              <mxPoint x="2641" y="4300" />
            </Array>
          </mxGeometry>
        </mxCell>
        <mxCell id="8f1z-NfyuTeYd83FFEyt-82" style="edgeStyle=orthogonalEdgeStyle;rounded=0;orthogonalLoop=1;jettySize=auto;html=1;" edge="1" parent="1" source="node17" target="node2">
          <mxGeometry relative="1" as="geometry">
            <Array as="points">
              <mxPoint x="2098" y="3740" />
              <mxPoint x="2641" y="3740" />
            </Array>
          </mxGeometry>
        </mxCell>
      </root>
    </mxGraphModel>
  </diagram>
</mxfile>
